:SAMPLES-PER-SECOND 30
:FULLY-SPECIFIED
:DEGREES
116
root  -60.814 40.2198 -33.2809 9.3307 10.9599 1.91032
RightUpLeg  -23.1951 -16.8154 -8.46864
RightLeg  9.13016 -37.835 5.47074
RightFoot  6.53762 0.853607 -5.13571
RightToes  0.00048216 0.542163 -0.142577
Spine  54.2308 -3.10576 4.99884
Spine1  10.0134 -1.52366 0.0755094
HEad  -33.1894 4.49624 -13.5961
LeftShoulder1  9.06534 -22.1083 -29.224
LeftArm  -25.1264 -58.1228 -30.2757
LeftForeArm  2.82987 -51.514 -13.9674
LeftHand  -0.25398 0.0180481 5.50724
RightShoulder  3.80822 11.0944 19.6555
RightArm  -38.6735 36.2155 20.0827
RightForeArm  -31.4117 66.1295 29.9408
RightHand  -0.00477496 -5.53885 -15.7543
LeftUpLeg  -34.1727 19.6 -9.52693
LeftLeg  23.8737 -1.11024 -0.203921
LeftFoot  -0.398314 0.852654 -8.89979
LeftToes  1.06244e-005 4.65854e-005 -8.18505e-006
117
root  -60.5354 40.2455 -33.3071 8.29797 12.6155 1.81395
RightUpLeg  -21.5352 -17.0211 -9.38433
RightLeg  9.18881 -39.1252 4.99314
RightFoot  6.95666 0.751441 -4.36398
RightToes  0.00048216 0.542163 -0.142577
Spine  52.6696 -2.97778 4.82324
Spine1  10.1023 -1.61561 0.456646
HEad  -31.5549 5.70095 -14.4686
LeftShoulder1  8.91331 -21.5541 -29.4132
LeftArm  -22.7036 -59.007 -31.9015
LeftForeArm  3.1351 -51.0181 -13.6867
LeftHand  -0.25398 0.0180481 5.50724
RightShoulder  3.92279 11.068 20.5504
RightArm  -37.7301 34.3435 20.8185
RightForeArm  -31.7696 66.9293 31.2839
RightHand  -0.0610196 -5.12497 -16.6326
LeftUpLeg  -33.4885 19.6904 -7.82196
LeftLeg  27.629 2.72324 1.87047
LeftFoot  -1.95143 0.528397 -6.32169
LeftToes  1.06244e-005 4.65854e-005 -8.18505e-006
118
root  -60.1761 40.2437 -33.3061 7.48511 14.3551 1.48227
RightUpLeg  -20.0312 -17.271 -10.1687
RightLeg  9.20139 -40.3621 4.6165
RightFoot  7.12627 0.6191 -3.50336
RightToes  0.00048216 0.542163 -0.142577
Spine  50.7163 -2.85904 4.72098
Spine1  10.327 -1.78812 1.10392
HEad  -29.8048 7.04496 -15.1773
LeftShoulder1  8.58039 -20.6552 -29.3744
LeftArm  -19.4266 -60.1323 -34.8082
LeftForeArm  3.46107 -50.1777 -13.2389
LeftHand  -0.25398 0.0180481 5.50724
RightShoulder  4.00606 11.088 21.1217
RightArm  -37.0033 32.5117 21.6393
RightForeArm  -31.6056 67.918 33.0728
RightHand  -0.198111 -4.23729 -17.9828
LeftUpLeg  -32.8843 20.5939 -6.15204
LeftLeg  30.3435 4.53058 3.19511
LeftFoot  -3.17363 0.38103 -5.069
LeftToes  1.06244e-005 4.65854e-005 -8.18505e-006
119
root  -59.7343 40.2374 -33.2803 6.96877 16.0984 1.07611
RightUpLeg  -18.6405 -17.5522 -10.9573
RightLeg  8.82275 -41.3013 4.62279
RightFoot  7.42433 0.526009 -2.87281
RightToes  0.00048216 0.542163 -0.142577
Spine  48.4553 -2.76305 4.59035
Spine1  10.6434 -1.95824 1.63649
HEad  -28.2421 8.4081 -15.6352
LeftShoulder1  8.33294 -20.0344 -29.2678
LeftArm  -16.1871 -61.0532 -37.3879
LeftForeArm  3.33665 -49.1456 -12.7526
LeftHand  -0.25398 0.0180481 5.50724
RightShoulder  4.13234 11.1233 21.9679
RightArm  -36.5016 30.5848 22.128
RightForeArm  -30.9176 69.2177 35.7146
RightHand  -0.389293 -3.19798 -19.832
LeftUpLeg  -32.2643 22.1026 -4.8433
LeftLeg  31.3126 5.6269 4.02518
LeftFoot  -4.23568 0.225882 -3.22271
LeftToes  1.06244e-005 4.65854e-005 -8.18505e-006
120
root  -59.2063 40.2258 -33.2437 6.71893 17.8487 0.668762
RightUpLeg  -17.3206 -17.8805 -11.823
RightLeg  8.17422 -42.5315 4.84912
RightFoot  8.23062 0.418751 -2.10235
RightToes  0.00048216 0.542163 -0.142577
Spine  46.1303 -2.86672 4.36126
Spine1  10.6682 -2.23844 1.70499
HEad  -26.748 9.89282 -15.6625
LeftShoulder1  8.15596 -19.6363 -29.1159
LeftArm  -13.4381 -61.7442 -38.5596
LeftForeArm  2.8073 -47.812 -12.1848
LeftHand  -0.25398 0.0180481 5.50724
RightShoulder  4.35669 11.2896 23.24
RightArm  -35.9551 28.5557 22.3409
RightForeArm  -30.0092 70.4924 38.7357
RightHand  -0.575218 -2.3661 -21.6234
LeftUpLeg  -31.7087 24.2915 -4.14583
LeftLeg  30.5653 7.22811 4.92724
LeftFoot  -5.25248 0.0857834 -1.01853
LeftToes  1.06244e-005 4.65854e-005 -8.18505e-006
121
root  -58.5948 40.2101 -33.2088 6.63248 19.7495 0.279709
RightUpLeg  -15.8648 -18.1537 -12.8115
RightLeg  7.07694 -44.3579 5.25234
RightFoot  9.25221 0.230323 -0.916591
RightToes  0.00048216 0.542163 -0.142577
Spine  43.8804 -2.84564 3.75997
Spine1  10.2905 -2.65425 2.24318
HEad  -25.1305 11.3613 -15.538
LeftShoulder1  8.06839 -19.2697 -29.3081
LeftArm  -10.2671 -62.5871 -39.4452
LeftForeArm  2.11215 -46.0094 -11.4666
LeftHand  -0.25398 0.0180481 5.50724
RightShoulder  4.4731 11.3048 24.038
RightArm  -35.2773 26.4252 22.6696
RightForeArm  -29.23 71.4658 41.4297
RightHand  -0.729999 -1.75736 -22.9663
LeftUpLeg  -31.4001 27.1027 -4.16229
LeftLeg  28.8479 9.67324 6.05462
LeftFoot  -6.56092 0.021954 0.410931
LeftToes  1.06244e-005 4.65854e-005 -8.18505e-006
122
root  -57.8986 40.2004 -33.1798 6.53412 21.7759 -0.0719147
RightUpLeg  -14.1278 -18.1835 -13.9032
RightLeg  5.33016 -45.9077 5.88998
RightFoot  10.1772 0.0602375 0.0553173
RightToes  0.00048216 0.542163 -0.142577
Spine  41.7746 -2.65643 2.80619
Spine1  9.71244 -3.09885 3.19837
HEad  -23.3153 12.6443 -14.9333
LeftShoulder1  7.99379 -18.9816 -29.4356
LeftArm  -6.05098 -63.6014 -41.2559
LeftForeArm  0.92141 -43.6843 -10.6341
LeftHand  -0.25398 0.0180481 5.50724
RightShoulder  4.4998 11.1422 24.5818
RightArm  -34.6846 24.2149 22.7317
RightForeArm  -29.0842 72.0849 43.3769
RightHand  -0.85538 -1.29026 -23.8991
LeftUpLeg  -31.1578 30.0914 -4.83688
LeftLeg  26.8012 12.8039 7.26209
LeftFoot  -8.00524 0.0147765 1.1392
LeftToes  1.06244e-005 4.65854e-005 -8.18505e-006
123
root  -57.091 40.1685 -33.156 6.18759 23.684 -0.433212
RightUpLeg  -12.2333 -18.1738 -15.112
RightLeg  3.92632 -46.8016 6.25623
RightFoot  11.3261 -0.0668342 0.718357
RightToes  0.00048216 0.542163 -0.142577
Spine  39.7313 -2.91841 2.03091
Spine1  9.34977 -3.58194 2.98219
HEad  -21.3235 14.0132 -13.156
LeftShoulder1  7.71167 -18.6728 -28.6448
LeftArm  -1.16243 -64.5715 -43.5278
LeftForeArm  -1.30565 -40.8472 -9.76023
LeftHand  -0.25398 0.0180481 5.50724
RightShoulder  4.80792 11.4149 26.1407
RightArm  -34.3239 22.0837 21.8141
RightForeArm  -30.5196 72.2101 43.8573
RightHand  -0.942391 -0.988879 -24.5498
LeftUpLeg  -30.4766 32.5407 -5.76135
LeftLeg  24.838 15.6068 8.06747
LeftFoot  -8.65422 0.0085995 1.82928
LeftToes  1.06244e-005 4.65854e-005 -8.18505e-006
